<?xml version="1.0" encoding="UTF-8"?>
<svg xmlns="http://www.w3.org/2000/svg" viewBox="0 0 656.13 410.46">
  <defs>
    <style>
      .cls-1 {
        fill: #f1f2f2;
      }

      .cls-1, .cls-2, .cls-3, .cls-4, .cls-5, .cls-6 {
        stroke: #231f20;
        stroke-miterlimit: 10;
      }

      .cls-7 {
        fill: #ce8d35;
      }

      .cls-2 {
        fill: #fbb040;
      }

      .cls-3 {
        fill: #f7941d;
      }

      .cls-8, .cls-6 {
        fill: #fff;
      }

      .cls-4, .cls-9 {
        fill: #2d6883;
      }

      .cls-10 {
        fill: #2c6784;
      }

      .cls-11 {
        fill: #c57329;
      }

      .cls-5 {
        fill: #fff200;
      }

      .cls-12 {
        fill: #044d67;
      }
    </style>
  </defs>
  <g id="Layer_2" data-name="Layer 2">
    <path class="cls-12" d="M49.41,345.65s28.96,27.85,84.91,20.38c55.94-7.47,432.96-16.31,432.96-16.31,0,0,68.47-2.1,86.24-62.71,17.77-60.61-60.51-98.69-60.51-98.69,0,0-35.54-21.37-51.41-44.64s-29.41-49.5-53.74-87.16C463.53,18.86,403.96,2.58,403.96,2.58c0,0-54.54-12.67-90.07,18.1s-46.85,45.71-82.15,73.78c-35.3,28.06-71.97,42.76-108.63,38.35-36.66-4.41-70.61,2.83-89.16,20.48-5.96,5.67-12.07,12.79-17.42,21.58-.73,1.2-1.45,2.43-2.15,3.69C4.23,196.82-2.54,221.65.91,254.69c5.43,52.05,36.8,79.63,48.5,90.96Z"/>
    <g>
      <polygon class="cls-3" points="148.03 409.96 271.88 409.96 271.88 216.79 148.03 216.79 148.03 356.69 148.03 409.96"/>
      <polygon class="cls-2" points="534.84 216.79 403.13 116.96 271.88 216.79 271.88 409.96 534.84 409.96 534.84 216.79"/>
      <polygon class="cls-6" points="148.03 216.79 279.74 116.96 403.13 116.96 271.88 216.79 148.03 216.79"/>
    </g>
    <circle class="cls-8" cx="84.93" cy="167.45" r="5.86"/>
    <circle class="cls-8" cx="90.78" cy="317.39" r="5.86"/>
    <circle class="cls-8" cx="49.56" cy="245.51" r="5.86"/>
    <circle class="cls-8" cx="184.81" cy="145.08" r="5.86"/>
    <circle class="cls-8" cx="422.84" cy="55.83" r="5.86"/>
    <circle class="cls-8" cx="328.07" cy="38.04" r="5.86"/>
    <circle class="cls-8" cx="510.07" cy="125.71" r="5.86"/>
    <circle class="cls-8" cx="609.51" cy="225.18" r="5.86"/>
    <circle class="cls-8" cx="598.93" cy="303.47" r="5.86"/>
    <circle class="cls-8" cx="538.72" cy="200.43" r="5.86"/>
    <circle class="cls-8" cx="394.17" cy="103.27" r="5.86"/>
  </g>
  <g id="Layer_3" data-name="Layer 3">
    <polygon class="cls-1" points="316.37 255.38 316.37 338 312.55 338 312.55 349.22 384.53 349.22 384.53 338.57 381.08 338.57 381.38 255.38 316.37 255.38"/>
    <rect class="cls-5" x="323.9" y="261.73" width="22.39" height="38.12"/>
    <rect class="cls-5" x="323.9" y="303.47" width="22.39" height="36.91"/>
    <rect class="cls-5" x="351.43" y="261.73" width="22.39" height="38.12"/>
    <rect class="cls-5" x="351.43" y="303.47" width="22.39" height="36.91"/>
    <polygon class="cls-1" points="425.87 255.38 425.87 338 422.04 338 422.04 349.22 494.02 349.22 494.02 338.57 490.57 338.57 490.87 255.38 425.87 255.38"/>
    <rect class="cls-9" x="433.39" y="261.73" width="22.39" height="38.12"/>
    <rect class="cls-9" x="433.39" y="303.47" width="22.39" height="36.91"/>
    <rect class="cls-9" x="460.92" y="261.73" width="22.39" height="38.12"/>
    <rect class="cls-9" x="460.92" y="303.47" width="22.39" height="36.91"/>
    <polygon class="cls-6" points="184.93 255.38 184.93 338 182.02 338 182.02 349.22 236.83 349.22 236.83 338.57 234.2 338.57 234.43 255.38 184.93 255.38"/>
    <rect class="cls-10" x="190.66" y="261.73" width="17.05" height="38.12"/>
    <rect class="cls-10" x="190.66" y="303.47" width="17.05" height="36.91"/>
    <rect class="cls-10" x="211.62" y="261.73" width="17.05" height="38.12"/>
    <rect class="cls-10" x="211.62" y="303.47" width="17.05" height="36.91"/>
    <circle class="cls-6" cx="403.15" cy="180.05" r="26.24"/>
    <circle class="cls-4" cx="403.13" cy="180.05" r="19.71"/>
    <rect class="cls-3" x="256.24" y="83.87" width="13.36" height="76.47"/>
    <polygon class="cls-2" points="297.73 138.77 269.6 161.59 269.6 83.87 296.9 83.87 297.73 138.77"/>
    <rect class="cls-7" x="312.55" y="349.73" width="71.98" height="8.2"/>
    <rect class="cls-7" x="422.04" y="349.73" width="71.98" height="8.2"/>
    <rect class="cls-11" x="182.02" y="349.73" width="54.81" height="8.2"/>
  </g>
</svg>